<svg xmlns="http://www.w3.org/2000/svg" height="48" viewBox="0 -960 960 960" width="48"><path d="M316.5-230.5H364v-88h87.5V-366H364v-87.5h-47.5v87.5h-88v47.5h88v88Zm213-34.5h198v-46.5h-198v46.5Zm0-107.5h198V-420h-198v47.5Zm35.5-161 61.5-61.5 61 61.5L722-568l-61.5-61 61-61-34-34.5-60.75 61-61.75-61-34.5 34.5 61.5 61-61 61 34 34.5ZM243.5-605h193v-47.5h-193v47.5ZM182-124.5q-22.969 0-40.234-17.266Q124.5-159.031 124.5-182v-596q0-22.969 17.266-40.234Q159.031-835.5 182-835.5h596q22.969 0 40.234 17.266Q835.5-800.969 835.5-778v596q0 22.969-17.266 40.234Q800.969-124.5 778-124.5H182Z"/></svg>