<svg xmlns="http://www.w3.org/2000/svg" height="48" viewBox="0 -960 960 960" width="48"><path d="M451.5-404.5H509V-642h-57.5v237.5Zm29 150q12 0 20.25-8.75t8.25-20.5q0-11.75-8.375-20T480-312q-11.5 0-20 8.484-8.5 8.485-8.5 20.266 0 11.031 8.5 19.891 8.5 8.859 20.5 8.859Zm-167 163q-12.475 0-20.487-8.013Q285-107.525 285-120v-656.5q0-12.475 8.013-20.487Q301.025-805 313.5-805h88.667v-63.5H558.5v63.5h88.649q11.826 0 20.088 8.013 8.263 8.012 8.263 20.487V-120q0 12.475-8.194 20.487Q659.112-91.5 647-91.5H313.5Zm29-57.5H618v-598.5H342.5V-149Zm0 0H618 342.5Z"/></svg>