<svg xmlns="http://www.w3.org/2000/svg" height="48" viewBox="0 -960 960 960" width="48"><path d="M251.5-371.5H309V-589h-57.5v217.5Zm200 0H509V-589h-57.5v217.5Zm200 0H709V-589h-57.5v217.5Zm-440.1 247v-80h-68.8q-23.01 0-40.305-17.266Q85-239.031 85-262v-436q0-22.969 17.295-40.234Q119.59-755.5 142.6-755.5h68.8v-80H269v80h182.5v-80H509v80h182.5v-80h57.4v80h68.7q22.928 0 40.164 17.266Q875-720.969 875-698v436q0 22.969-17.236 40.234Q840.528-204.5 817.6-204.5h-68.7v80h-57.4v-80H509v80h-57.5v-80H269v80h-57.6Z"/></svg>