<?xml version="1.0" encoding="UTF-8" standalone="no"?>
<svg
   height="48"
   viewBox="0 -960 960 960"
   width="48"
   version="1.1"
   id="svg749"
   sodipodi:docname="icon_dt_battery_error.svg"
   inkscape:version="1.2.1 (9c6d41e410, 2022-07-14)"
   xmlns:inkscape="http://www.inkscape.org/namespaces/inkscape"
   xmlns:sodipodi="http://sodipodi.sourceforge.net/DTD/sodipodi-0.dtd"
   xmlns="http://www.w3.org/2000/svg"
   xmlns:svg="http://www.w3.org/2000/svg">
  <defs
     id="defs753" />
  <sodipodi:namedview
     id="namedview751"
     pagecolor="#505050"
     bordercolor="#eeeeee"
     borderopacity="1"
     inkscape:showpageshadow="0"
     inkscape:pageopacity="0"
     inkscape:pagecheckerboard="0"
     inkscape:deskcolor="#505050"
     showgrid="false"
     inkscape:zoom="17.708333"
     inkscape:cx="16.997647"
     inkscape:cy="24.028235"
     inkscape:window-width="1920"
     inkscape:window-height="1019"
     inkscape:window-x="1071"
     inkscape:window-y="422"
     inkscape:window-maximized="1"
     inkscape:current-layer="svg749" />
  <path
     d="m656-96-40-40 84-84-84-84 40-40.5 84 84 84-84 40.5 40.5-83 84 83 84L824-96l-84-83-84 83Zm-342.5 4.5q-12.725 0-20.612-7.888Q285-107.275 285-120v-656.5q0-12.725 7.888-20.612Q300.775-805 313.5-805H402v-63.5h156.5v63.5H647q12.225 0 20.362 7.888 8.138 7.887 8.138 20.612v358q-64 19-103.5 75.75T532.5-220q0 37.441 11 68.97 11 31.53 35.5 59.53H313.5Z"
     id="path747"
     style="fill:#ffffff" />
</svg>
