<?xml version="1.0" encoding="UTF-8" standalone="no"?>
<svg
   height="48"
   viewBox="0 -960 960 960"
   width="48"
   version="1.1"
   id="svg297"
   sodipodi:docname="icon_dt_device_temperature.svg"
   inkscape:version="1.2.1 (9c6d41e410, 2022-07-14)"
   xmlns:inkscape="http://www.inkscape.org/namespaces/inkscape"
   xmlns:sodipodi="http://sodipodi.sourceforge.net/DTD/sodipodi-0.dtd"
   xmlns="http://www.w3.org/2000/svg"
   xmlns:svg="http://www.w3.org/2000/svg">
  <defs
     id="defs301" />
  <sodipodi:namedview
     id="namedview299"
     pagecolor="#505050"
     bordercolor="#eeeeee"
     borderopacity="1"
     inkscape:showpageshadow="0"
     inkscape:pageopacity="0"
     inkscape:pagecheckerboard="0"
     inkscape:deskcolor="#505050"
     showgrid="false"
     inkscape:zoom="17.708333"
     inkscape:cx="16.997647"
     inkscape:cy="24.028235"
     inkscape:window-width="1920"
     inkscape:window-height="1019"
     inkscape:window-x="1071"
     inkscape:window-y="422"
     inkscape:window-maximized="1"
     inkscape:current-layer="svg297" />
  <path
     d="M480-85q-81.5 0-139-57.5t-57.5-138.916q0-50.084 23-94.834T374-442.5V-769q0-44.167 30.917-75.083Q435.833-875 480-875t75.083 30.917Q586-813.167 586-769v326.5q45 21.5 67.75 66.317 22.75 44.817 22.75 94.717Q676.5-200 619-142.5 561.5-85 480-85Zm-48.5-429h97v-53.5H480v-38.583h48.5v-86.167H480v-38.083h48.5v-38.834q0-20.541-13.82-34.437-13.82-13.896-34.75-13.896t-34.68 13.8Q431.5-789.9 431.5-769v255Z"
     id="path295"
     style="fill:#ffffff" />
</svg>
